<?xml version="1.0" standalone="no"?>
<!DOCTYPE svg PUBLIC "-//W3C//DTD SVG 20010904//EN"
 "http://www.w3.org/TR/2001/REC-SVG-20010904/DTD/svg10.dtd">
<svg version="1.0" xmlns="http://www.w3.org/2000/svg"
 width="319.000000pt" height="319.000000pt" viewBox="0 0 319.000000 319.000000"
 preserveAspectRatio="xMidYMid meet">
<metadata>
Created by potrace 1.11, written by Peter Selinger 2001-2013
</metadata>
<g transform="translate(0.000000,319.000000) scale(0.100000,-0.100000)"
fill="#000000" stroke="none">
<path d="M530 3015 c0 -96 -3 -175 -7 -176 -5 0 -27 -2 -50 -3 -79 -5 -121
-56 -119 -140 l1 -41 -177 3 -178 3 0 -54 c0 -35 4 -56 13 -59 6 -2 86 -3 177
-3 l166 1 -1 -85 0 -86 -178 -3 -177 -2 0 -55 0 -55 177 -2 178 -3 -1 -85 0
-85 -130 -2 c-71 -1 -150 -2 -176 -2 l-48 -1 0 -55 0 -55 178 0 177 0 0 -94
c0 -80 -2 -93 -15 -87 -8 4 -87 7 -175 7 l-160 -1 -3 -56 -3 -56 176 1 c110 1
175 -3 176 -9 0 -5 2 -46 3 -90 l2 -80 -178 1 -178 1 0 -56 0 -56 178 0 177 0
0 -75 c0 -41 -1 -81 -3 -87 -3 -10 -48 -13 -178 -13 l-174 0 0 -55 c0 -45 3
-55 18 -56 9 0 88 -1 176 -2 l159 -2 1 -87 1 -88 -177 0 -178 0 0 -55 0 -55
177 -2 177 -3 0 -85 0 -85 -177 0 -177 0 0 -57 0 -58 152 1 c84 0 165 0 179
-1 24 0 26 -3 24 -39 -4 -86 46 -138 132 -136 l48 1 -3 -178 -3 -179 58 3 57
3 1 165 c0 91 -3 170 -7 175 -4 7 26 10 88 10 l94 0 0 -177 0 -178 55 0 55 0
2 177 3 177 88 1 87 0 0 -130 c-1 -71 -1 -151 -1 -177 l1 -48 55 0 55 0 0 178
0 177 85 0 c47 1 86 -2 86 -5 1 -3 2 -81 3 -175 l1 -170 55 0 55 0 0 175 0
175 90 0 90 0 -1 -177 -1 -178 54 0 c35 0 53 4 54 13 1 6 3 82 4 167 1 85 3
160 4 165 0 6 37 10 89 10 l87 0 -3 -177 -3 -178 56 0 c37 0 55 4 56 13 5 78
3 316 -2 327 -7 14 5 16 87 15 l94 0 0 -177 0 -178 55 0 55 0 2 177 3 178 85
0 85 0 2 -170 c1 -94 2 -173 2 -177 1 -5 26 -8 57 -8 l55 0 -1 108 c-1 59 -1
139 -1 177 l1 70 50 1 c84 2 129 50 125 135 -1 30 2 39 14 40 9 0 89 0 179 0
l162 -1 0 55 c0 37 -4 55 -12 56 -7 0 -87 1 -178 1 l-166 1 1 86 0 86 178 3
177 2 0 55 0 55 -178 0 -177 0 0 89 0 88 160 1 c88 0 168 1 178 1 14 1 17 11
17 56 l0 56 -178 -3 -177 -3 0 82 c0 45 4 85 8 90 5 4 84 8 175 8 l167 0 3 56
3 56 -167 -1 c-91 -1 -171 2 -177 6 -7 4 -12 39 -12 90 l-1 83 179 -1 178 -1
-3 56 -3 56 -170 0 c-93 0 -172 -3 -175 -7 -3 -4 -5 36 -5 88 l0 94 177 0 178
0 0 55 0 55 -67 1 c-38 0 -117 0 -178 0 l-110 -1 0 88 0 87 178 3 177 2 0 55
0 55 -178 0 -177 0 0 88 0 89 177 -1 178 -1 0 58 0 57 -175 0 c-96 0 -175 3
-176 8 0 4 -2 25 -4 48 -5 79 -44 115 -125 117 l-50 2 -1 35 c0 19 0 99 0 178
l0 142 -55 0 c-36 0 -54 -4 -55 -12 0 -7 -1 -87 -2 -178 l0 -165 -89 0 -88 0
0 178 0 177 -55 0 -55 0 0 -175 c0 -133 -3 -175 -12 -176 -7 -1 -47 -2 -89 -3
l-77 -2 2 178 1 178 -57 0 -58 0 0 -178 0 -178 -82 2 c-46 1 -86 3 -89 3 -3 1
-5 80 -5 176 l1 175 -56 0 -56 0 0 -177 1 -178 -75 2 c-41 0 -81 1 -89 2 -13
1 -15 27 -14 176 l1 175 -56 0 -56 0 0 -178 0 -177 -87 0 -88 0 0 178 0 177
-55 0 -55 0 -1 -127 c0 -71 0 -150 1 -178 l1 -50 -90 0 -91 0 0 177 0 178 -55
0 -55 0 0 -178 0 -178 -87 2 -88 2 -1 173 0 174 -57 3 -57 3 0 -176z"/>
</g>
</svg>
